<svg data-v-0dd9719b="" version="1.0" xmlns="http://www.w3.org/2000/svg" xmlns:xlink="http://www.w3.org/1999/xlink" width="100%" height="100%" viewBox="0 0 340.000000 250.000000" preserveAspectRatio="xMidYMid meet" color-interpolation-filters="sRGB" style="margin: auto;"> <rect data-v-0dd9719b="" x="0" y="0" width="100%" height="100%" fill="#fff" fill-opacity="0" class="background">
</rect> <rect data-v-0dd9719b="" x="0" y="0" width="100%" height="100%" fill="url(#watermark)" fill-opacity="1" class="watermarklayer">
</rect> <g data-v-0dd9719b="" fill="white" class="icon-text-wrapper icon-svg-group iconsvg" transform="translate(48.410003662109375,89.7175064086914)">
<g class="iconsvg-imagesvg" transform="matrix(1,0,0,1,0,0)" opacity="1">
  <g>
  <rect fill="white" fill-opacity="0" stroke-width="2" x="0" y="0" width="59.99999999999999" height="70.56499035611797" class="image-rect">
  </rect> <svg x="0" y="0" width="59.99999999999999" height="70.56499035611797" filtersec="colorsb8917078633" class="image-svg-svg primary" style="overflow: visible;">
  <svg xmlns="http://www.w3.org/2000/svg" viewBox="0 -0.00685051828622818 141 165.8268585205078">
    <path d="M141 41.35c-1.31.87-2.14 1.49-3 2-7.16 4-14.39 7.89-21.48 12-2.05 1.19-3.56.82-5.36-.32-12.47-7.82-25-15.54-37.44-23.41a4.8 4.8 0 0 0-5.83-.07q-19 11.56-38.12 22.82c-2 1.2-2.48 2.68-2.49 4.82q-.08 40.74-.28 81.48v1.07c-.07 2.64-.54 2.94-2.78 1.65-5.57-3.2-11.12-6.44-16.67-9.66a44 44 0 0 0-4.42-2.51C.77 130.19 0 128.58 0 126q.27-41.15.31-82.28a5.35 5.35 0 0 1 3.07-5.28Q35.69 19.75 67.88.86a4.53 4.53 0 0 1 5.33 0q32.52 19.4 65.13 38.65c.75.49 1.44.99 2.66 1.84z" fill="#303e8f">
    </path>
    <path d="M74.91 47.2c1.69.87 2.87 1.42 4 2.07 6.48 3.73 12.92 7.59 19.44 11.29a3.61 3.61 0 0 1 2.14 3.58c-.14 28.51-.22 57-.4 85.52a3.76 3.76 0 0 1-1.43 2.79c-7.37 4.36-14.84 8.56-22.27 12.82-1.73 1-2.48.47-2.47-1.45v-10.45q.14-36.74.27-73.46c.05-9.92.25-19.83.4-29.75.07-.77.19-1.54.32-2.96zM62.65 165.82c-8.26-4.82-16-9.26-23.6-13.87-.71-.43-1-2-1.06-3 0-10.1 0-20.2.07-30.3.06-18 .17-36.1.15-54.15a4.31 4.31 0 0 1 2.6-4.38c7-3.8 13.81-7.84 20.7-11.78.37-.21.77-.36 1.56-.73zM111.28 106.57q.06-17.28.13-34.56c0-3.38.41-3.57 3.5-1.9 6.18 3.36 12.37 6.72 18.63 10a4.27 4.27 0 0 1 2.71 4.34q-.19 22.09-.15 44.2a3.91 3.91 0 0 1-2.28 3.82c-6.63 3.68-13.18 7.49-19.78 11.21-2.45 1.38-2.89 1.12-2.88-1.69q.05-17.73.12-35.42z" fill="#fb941c">
    </path>
  </svg>
</svg> <!----> 
</g>
</g> <g transform="translate(67,19.182491302490234)">
<g data-gra="path-name" fill-rule="" class="tp-name iconsvg-namesvg" opacity="1" transform="matrix(1,0,0,1,0,0)">
  <g transform="scale(1)">
    <g>
    <path d="M17.89 0.19Q14.64 0.19 11.72-1.05 8.8-2.3 6.6-4.55L6.6-4.55Q4.4-6.75 3.16-9.67 1.91-12.58 1.91-15.89L1.91-15.89Q1.91-19.19 3.13-22.11 4.35-25.02 6.6-27.27L6.6-27.27Q8.8-29.47 11.72-30.72 14.64-31.96 17.89-31.96L17.89-31.96Q21.48-31.96 24.69-30.43 27.89-28.9 30.43-25.89L30.43-25.89 27.18-23.11Q23.25-27.61 17.89-27.61L17.89-27.61Q15.55-27.61 13.42-26.7 11.29-25.79 9.67-24.16L9.67-24.16Q8.04-22.54 7.13-20.41 6.22-18.28 6.22-15.89L6.22-15.89Q6.22-13.49 7.13-11.36 8.04-9.23 9.67-7.61L9.67-7.61Q11.29-5.98 13.42-5.07 15.55-4.16 17.89-4.16L17.89-4.16Q23.25-4.16 27.18-8.66L27.18-8.66 30.43-5.89Q27.85-2.87 24.67-1.34 21.48 0.19 17.89 0.19L17.89 0.19ZM57.27-10.14L37.89-10.14Q37.89-9 38.73-7.75 39.57-6.51 40.67-5.65L40.67-5.65Q42.68-4.07 45.36-4.07L45.36-4.07Q49.62-4.07 52.3-8.18L52.3-8.18 55.93-6.03Q54.07-3.01 51.34-1.39 48.61 0.24 45.36 0.24L45.36 0.24Q42.92 0.24 40.72-0.69 38.52-1.63 36.84-3.3L36.84-3.3Q35.17-4.98 34.23-7.18 33.3-9.38 33.3-11.82L33.3-11.82Q33.3-14.26 34.23-16.48 35.17-18.71 36.84-20.38L36.84-20.38Q38.47-22.06 40.69-22.97 42.92-23.88 45.36-23.88L45.36-23.88Q47.8-23.88 50.02-22.97 52.25-22.06 53.88-20.38L53.88-20.38Q57.42-16.75 57.42-11.96L57.42-11.96Q57.42-11.1 57.27-10.14L57.27-10.14ZM45.36-19.95Q43.4-19.95 41.67-19.09 39.95-18.23 38.92-16.82 37.89-15.41 37.89-13.83L37.89-13.83 52.82-13.83Q52.82-15.41 51.79-16.82 50.77-18.23 49.04-19.09 47.32-19.95 45.36-19.95L45.36-19.95ZM76.36-21.67L72.39-19.33Q71.24-19.86 70.33-19.86L70.33-19.86Q68.42-19.86 67.18-18.52L67.18-18.52Q65.84-17.08 65.84-15.22L65.84-15.22 65.84 0 61.72 0 61.72-15.22Q61.72-17.8 63.04-19.95 64.35-22.11 66.65-23.3L66.65-23.3Q68.37-24.11 70.33-24.11L70.33-24.11Q71.91-24.11 73.35-23.54 74.78-22.97 76.36-21.67L76.36-21.67ZM90.96-19.62L87.37-19.62 87.37 0 83.3 0 83.3-19.62 79.71-19.62 79.71-23.92 83.3-23.92 83.3-31.82 87.37-31.82 87.37-23.92 90.96-23.92 90.96-19.62ZM97.46-27.37Q96.56-27.37 95.91-28.01 95.26-28.66 95.26-29.57L95.26-29.57Q95.26-30.48 95.91-31.12 96.56-31.77 97.46-31.77L97.46-31.77Q98.37-31.77 99.02-31.12 99.67-30.48 99.67-29.57L99.67-29.57Q99.67-28.66 99.02-28.01 98.37-27.37 97.46-27.37L97.46-27.37ZM99.52 0L95.5 0 95.5-23.92 99.52-23.92 99.52 0ZM125.74 0L121.58 0 121.58-13.73 108.66-13.73 108.66 0 104.45 0 104.45-31.82 108.66-31.82 108.66-18.04 121.58-18.04 121.58-31.82 125.74-31.82 125.74 0ZM149.04-0.14L144.88-0.14 144.88-2.15Q143.92-1.15 142.46-0.48 141 0.19 139.57 0.19L139.57 0.19Q137.66 0.19 135.91-0.55 134.16-1.29 132.82-2.63L132.82-2.63Q131.53-3.97 130.79-5.72 130.05-7.46 130.05-9.43L130.05-9.43 130.05-23.92 134.26-23.92 134.26-9.43Q134.26-7.22 135.84-5.65L135.84-5.65Q137.42-4.07 139.57-4.07L139.57-4.07Q140.57-4.07 141.58-4.5 142.58-4.93 143.3-5.65L143.3-5.65Q144.88-7.22 144.88-9.43L144.88-9.43 144.88-23.92 149.04-23.92 149.04-0.14ZM165.98 0.24Q163.73 0.24 161.65-0.81 159.57-1.87 158.04-3.68L158.04-3.68 158.04 0 153.83 0 153.83-31.77 158.04-31.77 158.04-20.48Q159.09-21.96 161.17-23.11 163.25-24.26 165.98-24.26L165.98-24.26Q168.42-24.26 170.67-23.3 172.92-22.34 174.55-20.67L174.55-20.67Q176.22-18.95 177.15-16.72 178.09-14.5 178.09-12.01L178.09-12.01Q178.09-9.52 177.15-7.3 176.22-5.07 174.55-3.35L174.55-3.35Q172.92-1.67 170.67-0.72 168.42 0.24 165.98 0.24L165.98 0.24ZM165.98-19.9Q164.4-19.9 162.94-19.31 161.48-18.71 160.43-17.61L160.43-17.61Q159.38-16.51 158.76-15.05 158.13-13.59 158.13-12.01L158.13-12.01Q158.13-8.8 160.43-6.41L160.43-6.41Q161.48-5.31 162.94-4.69 164.4-4.07 165.98-4.07L165.98-4.07Q167.56-4.07 169-4.69 170.43-5.31 171.48-6.41L171.48-6.41Q173.78-8.8 173.78-12.01L173.78-12.01Q173.78-13.59 173.16-15.05 172.54-16.51 171.48-17.61L171.48-17.61Q170.43-18.71 169-19.31 167.56-19.9 165.98-19.9L165.98-19.9Z" transform="translate(-1.9100000858306885, 31.959999084472656)">
    </path>
  </g> <!----> <!----> <!----> <!----> <!----> <!----> <!---->
</g>
</g> <!---->
</g>
</g>
<defs v-gra="od">
</defs>
</svg>